<?xml version="1.0" standalone="no"?>
<!DOCTYPE svg PUBLIC "-//W3C//DTD SVG 20010904//EN"
 "http://www.w3.org/TR/2001/REC-SVG-20010904/DTD/svg10.dtd">
<svg version="1.0" xmlns="http://www.w3.org/2000/svg"
 width="658.000000pt" height="570.000000pt" viewBox="0 0 658.000000 570.000000"
 preserveAspectRatio="xMidYMid meet">

<g transform="translate(0.000000,570.000000) scale(0.100000,-0.100000)"
fill="#000000" stroke="none">
<path d="M3280 4450 c0 -5 5 -10 11 -10 5 0 7 5 4 10 -3 6 -8 10 -11 10 -2 0
-4 -4 -4 -10z"/>
<path d="M3200 4400 c0 -13 7 -20 20 -20 11 0 20 5 20 10 0 6 -5 10 -11 10 -5
0 -7 5 -4 10 3 6 -1 10 -9 10 -9 0 -16 -9 -16 -20z"/>
<path d="M3245 4410 c4 -6 11 -8 16 -5 14 9 11 15 -7 15 -8 0 -12 -5 -9 -10z"/>
<path d="M1481 3920 c0 -8 4 -22 9 -30 12 -18 12 -2 0 25 -6 13 -9 15 -9 5z"/>
<path d="M1353 3867 c-2 -4 -9 -4 -16 0 -6 3 -1 -8 12 -25 15 -22 31 -32 48
-32 21 0 23 2 13 15 -13 16 -6 35 15 35 8 0 16 3 18 8 3 4 -15 7 -40 7 -25 0
-47 -3 -50 -8z"/>
<path d="M1455 3861 c-4 -12 -12 -18 -21 -14 -18 7 -18 -4 0 -23 20 -20 26
-18 26 9 0 13 5 28 12 35 9 9 9 12 1 12 -7 0 -14 -9 -18 -19z"/>
<path d="M3675 3809 c-4 -6 -5 -12 -2 -15 2 -3 7 2 10 11 7 17 1 20 -8 4z"/>
<path d="M3639 3773 c-1 -5 0 -12 1 -18 1 -5 -1 -7 -5 -4 -3 4 -30 -8 -58 -27
-29 -19 -62 -37 -74 -40 -13 -4 -23 -12 -23 -19 0 -19 62 -3 110 29 47 31 89
86 66 86 -9 0 -17 -3 -17 -7z"/>
<path d="M1533 3695 c12 -25 27 -34 27 -16 0 9 -27 41 -35 41 -2 0 2 -11 8
-25z"/>
<path d="M2590 3700 c-74 -10 -260 -33 -412 -51 -153 -18 -278 -36 -278 -40 0
-3 51 -47 113 -96 118 -96 228 -161 546 -326 l194 -100 191 36 c161 30 324 73
314 82 -2 2 -113 -17 -248 -41 -135 -24 -256 -44 -269 -44 -25 0 -220 99 -459
232 -129 72 -327 217 -314 229 12 11 842 110 855 102 6 -4 45 -33 85 -65 40
-31 100 -74 135 -94 104 -61 488 -257 493 -251 3 3 -85 51 -195 107 -248 126
-336 178 -450 269 -102 82 -87 79 -301 51z"/>
<path d="M3225 3681 c-7 -12 4 -19 37 -25 15 -2 35 -9 46 -15 12 -6 42 -10 69
-10 26 1 39 3 28 6 -11 3 -54 16 -95 29 -87 28 -77 26 -85 15z"/>
<path d="M1337 3658 c-10 -5 -28 -7 -39 -5 -18 5 -17 2 8 -24 16 -16 41 -36
55 -43 25 -12 28 -12 32 5 6 22 37 26 37 4 0 -8 5 -15 10 -15 6 0 10 7 10 15
0 24 17 17 24 -9 9 -36 53 -84 98 -107 28 -14 40 -28 45 -49 6 -33 24 -52 44
-48 9 2 14 -6 14 -20 0 -29 35 -58 47 -39 4 6 8 54 8 105 0 76 -3 92 -15 92
-13 0 -43 -38 -59 -75 -3 -5 -13 0 -24 11 -10 12 -41 34 -70 48 -30 15 -53 35
-58 48 -4 13 -12 26 -18 31 -7 5 0 17 21 36 17 16 29 32 26 34 -2 3 -38 3 -79
0 -43 -2 -80 0 -87 5 -8 7 -18 7 -30 0z m33 -45 c0 -7 -5 -13 -11 -13 -6 0 -9
7 -5 15 3 8 1 15 -5 15 -6 0 -7 5 -3 11 7 12 24 -7 24 -28z"/>
<path d="M2786 3661 c-9 -14 129 -115 240 -177 162 -89 435 -226 442 -220 7 8
19 1 -165 94 -288 145 -354 185 -480 287 -17 14 -34 21 -37 16z"/>
<path d="M2720 3654 c0 -8 33 -36 105 -88 100 -74 579 -325 592 -312 4 3 4 7
2 9 -2 1 -65 32 -139 69 -275 137 -380 197 -479 277 -59 47 -81 60 -81 45z"/>
<path d="M2695 3614 c22 -20 65 -53 95 -73 105 -72 557 -307 568 -297 8 8 11
7 -143 83 -271 136 -391 206 -486 285 -59 48 -88 50 -34 2z"/>
<path d="M2630 3610 c71 -61 200 -141 395 -244 212 -111 275 -141 275 -129 0
5 -60 38 -133 75 -250 128 -390 209 -465 268 -41 33 -82 60 -91 60 -11 0 -5
-10 19 -30z"/>
<path d="M2487 3623 c-9 -15 159 -133 289 -204 188 -103 405 -211 412 -205 8
8 10 7 -138 81 -222 111 -369 195 -457 261 -101 77 -100 76 -106 67z"/>
<path d="M2541 3626 c39 -39 188 -141 278 -190 121 -66 416 -216 425 -216 21
0 -2 19 -46 39 -73 34 -382 197 -443 234 -27 17 -80 55 -117 84 -37 29 -75 53
-84 53 -10 0 -15 -2 -13 -4z"/>
<path d="M2430 3605 c32 -38 169 -131 302 -204 201 -110 389 -203 396 -197 8
8 7 9 -98 61 -224 111 -401 213 -493 282 -91 69 -136 93 -107 58z"/>
<path d="M2370 3595 c6 -8 44 -39 83 -69 104 -79 594 -342 620 -333 7 2 -22
21 -63 41 -218 109 -461 247 -540 308 -85 64 -129 88 -100 53z"/>
<path d="M2237 3594 c-11 -11 146 -129 246 -185 163 -93 457 -241 469 -237 7
3 -73 48 -177 102 -243 125 -381 208 -458 273 -64 54 -69 57 -80 47z"/>
<path d="M2300 3595 c0 -3 33 -31 74 -64 104 -82 610 -358 639 -348 6 2 -68
44 -164 94 -267 138 -367 197 -449 262 -66 53 -100 72 -100 56z"/>
<path d="M4655 3585 c-637 -104 -644 -106 -798 -182 -276 -136 -352 -166 -541
-208 -87 -19 -171 -55 -261 -110 -69 -43 -58 -40 120 25 330 121 747 274 820
300 48 17 167 44 295 65 323 55 390 69 445 98 58 30 46 32 -80 12z"/>
<path d="M2176 3582 c-5 -8 67 -69 143 -122 48 -32 363 -205 474 -259 49 -23
93 -41 100 -38 6 2 -41 29 -104 61 -239 121 -433 233 -515 299 -88 71 -90 72
-98 59z"/>
<path d="M2110 3571 c0 -17 163 -134 273 -195 202 -113 423 -226 443 -226 10
0 -42 32 -116 71 -330 173 -433 235 -539 323 -43 36 -61 44 -61 27z"/>
<path d="M2080 3529 c69 -62 143 -110 306 -199 203 -112 360 -190 381 -190 10
0 -59 40 -152 89 -249 128 -380 205 -470 277 -88 70 -137 88 -65 23z"/>
<path d="M1876 3524 c-3 -9 -6 -17 -6 -20 0 -2 30 -19 68 -38 37 -19 86 -47
110 -61 23 -14 42 -24 42 -22 0 6 -163 132 -187 146 -17 8 -22 8 -27 -5z"/>
<path d="M1477 3491 c-3 -14 -1 -18 9 -14 16 6 18 19 5 27 -5 3 -11 -3 -14
-13z"/>
<path d="M1248 3482 c-38 -23 -36 -35 2 -14 16 9 30 20 30 25 0 9 1 9 -32 -11z"/>
<path d="M1195 3429 c-11 -16 -1 -19 13 -3 7 8 8 14 3 14 -5 0 -13 -5 -16 -11z"/>
<path d="M5237 3402 c-66 -17 -101 -23 -105 -16 -15 23 -91 24 -184 3 -101
-23 -248 -53 -343 -69 -33 -6 -103 -21 -155 -34 -52 -13 -122 -29 -155 -36
-101 -20 -136 -31 -130 -40 4 -6 -3 -10 -13 -10 -13 0 -22 -9 -26 -26 -5 -19
-11 -24 -26 -19 -12 4 -20 2 -20 -4 0 -6 -9 -11 -19 -11 -11 0 -26 -7 -34 -15
-8 -8 -18 -11 -21 -7 -4 3 -10 2 -14 -4 -4 -6 -27 -18 -52 -26 -25 -9 -119
-44 -210 -78 -180 -67 -550 -202 -754 -274 -71 -25 -137 -46 -148 -46 -10 0
-44 11 -76 24 -61 26 -500 237 -644 310 -62 31 -88 40 -88 30 0 -7 -9 -19 -20
-26 -11 -7 -20 -21 -20 -30 0 -23 -30 -38 -74 -38 -20 0 -44 -4 -54 -9 -9 -5
-28 -14 -42 -20 -21 -9 -19 -10 20 -5 25 3 60 10 78 16 18 5 36 7 40 4 12 -12
-15 -27 -64 -34 -27 -5 -58 -14 -69 -21 -17 -10 -11 -12 37 -7 31 2 58 1 60
-3 2 -5 134 -75 293 -156 160 -81 294 -151 298 -155 8 -7 -49 -29 -383 -146
-230 -82 -320 -116 -325 -124 -12 -19 -54 -202 -49 -213 5 -13 158 29 554 152
93 28 95 29 104 9 12 -25 37 -21 210 39 72 25 165 56 207 71 l76 25 149 -77
c151 -78 191 -103 183 -110 -2 -2 -51 1 -109 6 -169 17 -678 16 -718 -1 -21
-9 -29 -17 -22 -21 17 -10 4 -17 -64 -29 -33 -6 -74 -20 -93 -31 -19 -11 -43
-20 -53 -20 -38 0 -66 -22 -90 -73 -24 -50 -27 -52 -75 -60 -27 -5 -63 -12
-80 -16 l-30 -8 28 -12 c16 -6 48 -11 72 -11 34 0 47 -5 55 -20 18 -34 56 -42
230 -50 91 -4 185 -12 210 -18 25 -6 99 -13 165 -17 66 -3 149 -11 185 -16 36
-6 178 -19 315 -30 138 -10 291 -23 340 -29 50 -5 137 -15 195 -21 58 -6 161
-19 230 -29 236 -35 395 -59 445 -69 40 -8 58 -6 101 10 29 11 57 25 62 32 5
7 20 47 32 89 l23 78 -44 41 c-24 22 -38 38 -31 34 7 -3 12 0 12 8 0 10 29 17
118 26 64 7 140 17 167 24 31 7 117 10 225 8 96 -2 209 -4 250 -5 65 -1 79 2
108 24 18 13 35 35 38 47 8 30 20 29 138 -11 107 -36 129 -36 192 3 49 30 129
137 278 370 75 117 153 234 174 260 22 25 47 60 57 76 82 134 184 273 210 288
8 4 15 16 15 26 0 19 -23 45 -32 36 -5 -5 -120 -21 -223 -30 -254 -23 -312
-57 -369 -218 -5 -17 -9 -16 -36 13 -26 28 -33 30 -67 24 -42 -8 -163 -62
-163 -73 0 -13 -86 -51 -184 -82 -100 -31 -128 -49 -77 -49 17 0 31 -3 31 -7
0 -8 -193 -194 -197 -190 -2 2 26 100 51 181 9 27 14 51 12 53 -1 2 -16 -34
-31 -79 -15 -46 -33 -96 -40 -113 -7 -16 -16 -43 -20 -59 l-6 -29 -32 29 c-27
24 -28 25 -9 3 28 -32 28 -47 -1 -86 l-22 -30 -41 21 c-22 11 -77 40 -122 62
-44 23 -78 45 -74 49 4 5 2 6 -3 2 -13 -7 -88 27 -79 35 3 4 -3 4 -15 1 -13
-3 -21 -1 -21 8 0 7 -2 10 -6 7 -7 -7 -122 42 -319 137 -88 43 -189 90 -224
106 -35 16 -62 31 -59 34 5 5 755 268 913 320 95 32 331 115 368 130 21 9 21
5 -6 95 -14 44 -29 76 -38 77 -8 1 -58 -10 -112 -25z m-812 -1303 c10 -16 -3
-23 -18 -11 -8 7 -18 8 -22 4 -5 -4 -5 -1 -1 6 9 15 32 16 41 1z m70 -9 c-28
-12 -55 -12 -55 0 0 6 17 10 38 9 30 0 33 -2 17 -9z m331 -16 c55 -14 144 -29
199 -34 55 -5 111 -13 125 -19 22 -9 20 -10 -15 -6 -22 2 -78 7 -125 9 -97 6
-432 45 -470 54 -19 5 -12 8 30 12 108 13 159 10 256 -16z"/>
<path d="M1179 3390 c-4 -8 -2 -23 3 -33 5 -10 7 -25 4 -32 -3 -8 -1 -17 3
-20 5 -2 11 6 13 20 3 14 2 25 -3 25 -4 0 -9 12 -11 28 -2 18 -5 22 -9 12z"/>
<path d="M1294 3348 c-10 -15 12 -25 47 -20 35 5 35 5 -8 20 -23 8 -35 8 -39
0z"/>
<path d="M1580 3350 c-12 -8 -9 -10 12 -10 24 0 78 -48 78 -70 0 -16 176 -188
210 -205 19 -10 38 -23 42 -29 5 -8 13 -7 29 2 16 10 19 10 13 1 -5 -9 -2 -10
10 -6 10 4 20 7 22 7 2 0 4 6 4 13 0 6 -23 23 -50 35 -27 13 -64 37 -82 53
-18 16 -39 29 -46 29 -7 0 -15 7 -18 15 -4 8 -10 15 -15 15 -13 0 -109 102
-109 116 0 27 -73 52 -100 34z"/>
<path d="M1465 3340 c-4 -6 7 -10 27 -9 27 0 30 2 13 9 -27 12 -33 12 -40 0z"/>
<path d="M1156 3283 c-4 -9 -2 -21 4 -27 7 -7 10 -2 10 17 0 31 -5 34 -14 10z"/>
<path d="M1095 3210 c-3 -6 1 -7 9 -4 18 7 21 14 7 14 -6 0 -13 -4 -16 -10z"/>
<path d="M1051 3164 c-12 -15 -21 -24 -21 -20 0 6 -67 -40 -106 -73 -6 -5 -30
-15 -53 -22 -47 -14 -49 -19 -21 -44 11 -10 20 -27 20 -37 0 -10 6 -21 14 -24
8 -3 17 -16 20 -29 12 -46 63 -58 261 -61 99 -1 153 1 120 4 l-60 7 25 23 c23
22 23 22 2 22 -26 0 -39 19 -21 31 8 5 28 9 44 10 17 1 -10 7 -60 13 -49 6
-119 9 -155 5 l-65 -6 66 -1 c87 -2 122 -38 54 -55 -13 -3 -10 -5 11 -6 37 -1
53 -27 24 -36 -24 -7 -155 4 -189 17 -14 5 -21 14 -18 22 3 8 -1 20 -9 27 -9
7 -13 21 -11 30 4 13 -3 20 -23 24 -16 3 -31 13 -34 21 -4 11 5 14 44 14 42 0
50 3 50 18 0 11 9 27 20 37 11 10 17 22 14 26 -3 5 2 6 11 3 11 -5 14 -2 9 11
-5 11 -2 16 7 15 25 -4 59 12 59 26 0 8 10 19 23 24 21 8 21 9 -5 9 -17 1 -34
-8 -47 -25z"/>
<path d="M129 3027 c-17 -13 -14 -33 6 -54 13 -12 152 -225 396 -605 160 -249
228 -339 286 -379 l42 -29 88 25 c48 13 113 31 143 38 l55 14 -2 49 c-1 42
-71 291 -169 602 l-26 84 -61 29 c-74 34 -113 37 -143 8 l-23 -22 -25 54 c-54
119 -106 142 -392 174 -72 8 -137 17 -145 19 -8 3 -21 0 -30 -7z"/>
<path d="M1860 2998 c-41 -17 -42 -18 -11 -13 18 3 46 5 60 5 15 0 35 6 44 13
28 20 -39 16 -93 -5z"/>
<path d="M2938 2997 c-16 -6 -28 -14 -28 -17 0 -3 11 -37 24 -76 23 -67 24
-68 35 -41 12 30 21 33 39 15 23 -23 24 2 2 66 -22 68 -26 71 -72 53z"/>
<path d="M1593 2945 c15 -32 31 -32 45 0 11 24 10 25 -22 25 -33 0 -34 -1 -23
-25z"/>
<path d="M993 2913 c9 -2 25 -2 35 0 9 3 1 5 -18 5 -19 0 -27 -2 -17 -5z"/>
<path d="M1592 2893 c2 -9 10 -18 18 -20 13 -4 13 -3 0 6 -13 9 -13 11 2 11 9
0 20 5 23 10 4 6 -5 10 -20 10 -19 0 -26 -5 -23 -17z"/>
<path d="M5568 2813 c7 -3 16 -2 19 1 4 3 -2 6 -13 5 -11 0 -14 -3 -6 -6z"/>
<path d="M1798 2714 c-10 -21 -22 -66 -27 -99 -6 -33 -15 -89 -21 -125 -18
-110 -22 -133 -30 -207 -5 -40 -11 -76 -13 -81 -3 -4 -2 -13 2 -20 4 -7 14 21
23 65 9 43 34 161 58 262 31 139 40 192 33 215 l-8 30 -17 -40z"/>
<path d="M1129 2684 c-14 -17 -10 -42 36 -234 8 -36 18 -76 20 -90 3 -14 8
-36 11 -50 3 -14 8 -36 10 -49 16 -83 37 -155 49 -168 12 -12 15 -10 21 11 3
14 3 29 0 34 -9 15 -84 452 -86 499 0 7 -11 23 -24 38 -21 23 -25 24 -37 9z"/>
<path d="M1482 2670 c-16 -26 -15 -41 2 -34 9 3 17 -6 24 -25 6 -17 13 -31 16
-31 3 0 10 17 15 37 9 30 7 40 -6 55 -21 23 -35 23 -51 -2z"/>
<path d="M1747 1994 c-38 -39 -40 -59 -4 -49 17 5 19 4 7 -4 -8 -6 -24 -8 -35
-5 -18 4 -18 4 -3 -6 16 -10 68 -156 68 -191 0 -8 9 -32 20 -54 11 -22 20 -41
20 -42 0 -2 -12 -3 -28 -3 -15 0 -43 -5 -62 -10 -38 -11 -81 -16 -265 -30 -65
-5 -123 -6 -129 -3 -5 3 -50 7 -100 8 -50 1 -109 6 -131 10 -36 7 -39 6 -27
-7 31 -38 288 -50 482 -23 215 30 301 59 327 109 14 26 14 31 0 40 -19 15 -78
179 -84 236 -3 25 -8 48 -12 53 -4 4 -24 -9 -44 -29z"/>
<path d="M1110 1901 c0 -17 18 -21 24 -6 3 9 0 15 -9 15 -8 0 -15 -4 -15 -9z"/>
<path d="M1705 1901 c-3 -5 -1 -12 5 -16 5 -3 10 1 10 9 0 18 -6 21 -15 7z"/>
<path d="M1298 1883 c7 -3 16 -2 19 1 4 3 -2 6 -13 5 -11 0 -14 -3 -6 -6z"/>
<path d="M1092 1795 c0 -16 2 -22 5 -12 2 9 2 23 0 30 -3 6 -5 -1 -5 -18z"/>
<path d="M1040 1660 c0 -5 12 -10 26 -10 14 0 23 4 19 10 -3 6 -15 10 -26 10
-10 0 -19 -4 -19 -10z"/>
<path d="M5990 1571 c0 -16 9 -49 20 -75 23 -50 20 -101 -7 -145 -8 -13 -10
-20 -4 -17 7 5 9 1 5 -8 -3 -9 -10 -13 -15 -10 -5 3 -4 -7 1 -21 6 -15 10 -37
10 -51 0 -16 6 -24 18 -24 15 -1 15 -2 -2 -15 -15 -11 -17 -18 -9 -26 21 -21
9 -27 -257 -151 -41 -19 -86 -38 -100 -42 -14 -4 -34 -11 -45 -16 -29 -13
-220 -70 -290 -87 -130 -30 -469 -92 -635 -117 -530 -77 -599 -85 -1020 -111
-667 -40 -1035 -43 -1520 -10 -118 8 -294 19 -390 25 -264 15 -457 39 -710 86
-224 42 -410 85 -500 116 -79 28 -269 121 -280 138 -3 4 -18 14 -35 23 -16 8
-50 35 -75 58 l-45 43 28 4 c28 3 63 -21 52 -37 -7 -12 7 -21 39 -23 15 -1 28
-10 32 -20 7 -23 50 -52 63 -44 5 4 28 0 50 -8 l41 -14 -34 39 c-20 21 -38 54
-42 75 -4 21 -22 57 -40 82 -29 37 -34 52 -34 95 1 29 7 63 15 77 8 14 14 42
15 63 0 36 -1 37 -22 26 -13 -7 -30 -20 -39 -31 -9 -10 -21 -18 -27 -18 -6 0
-14 -9 -17 -20 -3 -11 -11 -20 -16 -20 -5 0 -9 -7 -9 -16 0 -8 -4 -12 -10 -9
-5 3 -10 5 -10 3 0 -2 -9 -28 -20 -58 -11 -30 -20 -64 -19 -75 1 -17 2 -16 9
5 7 22 8 21 9 -12 1 -28 -3 -38 -14 -38 -11 0 -15 -11 -15 -38 0 -31 8 -46 43
-81 23 -24 76 -66 117 -93 41 -27 78 -56 83 -63 4 -8 14 -12 21 -9 8 3 41 -6
75 -20 76 -32 187 -68 249 -81 28 -6 32 -11 33 -38 1 -50 23 -112 39 -112 11
0 16 14 18 50 4 78 -1 76 119 50 107 -22 372 -68 468 -80 28 -4 88 -14 135
-22 47 -9 96 -15 109 -15 20 2 22 -2 17 -21 -3 -12 -6 -29 -7 -37 0 -8 -5 -4
-10 10 -6 18 -7 12 -2 -20 7 -54 28 -100 47 -100 16 0 36 50 36 89 0 14 3 36
6 49 6 19 11 22 32 17 70 -17 695 -51 1027 -54 l61 -1 11 -67 c19 -110 68
-134 93 -44 5 20 10 51 10 69 0 18 6 35 13 37 6 2 131 8 275 13 145 5 267 13
270 18 10 13 35 17 27 4 -8 -14 53 -12 200 5 66 8 156 16 200 18 44 3 106 7
138 9 31 2 57 1 57 -2 0 -3 4 -31 10 -64 9 -56 23 -86 41 -86 17 0 40 49 49
105 5 32 11 59 12 60 4 4 236 42 336 55 45 6 126 20 180 30 100 20 352 73 408
85 l32 7 4 -66 c2 -36 9 -71 15 -77 17 -17 41 27 49 90 6 48 5 54 -9 48 -9 -3
-19 -2 -22 3 -4 6 3 10 15 10 11 0 28 4 38 10 9 5 69 23 133 39 64 17 174 51
245 76 71 26 137 49 147 52 13 4 17 0 17 -20 0 -62 26 -76 35 -19 4 20 9 44
11 53 2 8 47 37 100 65 153 78 234 179 234 288 0 30 -5 58 -10 61 -6 4 -8 10
-5 15 9 14 -42 88 -65 95 -11 4 -18 10 -15 15 3 5 -4 14 -17 21 -12 6 -31 20
-42 30 -27 26 -36 24 -36 -10z m109 -322 c-7 -14 -14 -18 -21 -11 -13 13 -2
32 18 32 12 0 13 -4 3 -21z m-5359 -521 c0 -25 -3 -29 -10 -18 -13 20 -13 50
0 50 6 0 10 -15 10 -32z m3417 -114 c7 -20 -9 -95 -22 -97 -10 -2 -26 91 -18
106 7 13 33 7 40 -9z m-2496 -84 c-9 -24 -10 -24 -10 7 -1 17 2 40 7 50 6 15
7 14 10 -7 2 -14 -2 -37 -7 -50z m1896 44 c-3 -3 -12 -4 -19 -1 -8 3 -5 6 6 6
11 1 17 -2 13 -5z m-1299 -11 c-10 -2 -26 -2 -35 0 -10 3 -2 5 17 5 19 0 27
-2 18 -5z m1120 0 c-10 -2 -26 -2 -35 0 -10 3 -2 5 17 5 19 0 27 -2 18 -5z
m-468 -25 c0 -13 -5 -40 -11 -61 -8 -31 -14 -38 -31 -35 -16 2 -24 15 -34 53
-7 28 -13 53 -14 58 0 4 20 7 45 7 40 0 45 -2 45 -22z"/>
<path d="M5920 1180 c-17 -15 -19 -20 -7 -20 26 0 47 11 47 26 0 19 -13 17
-40 -6z"/>
</g>
</svg>
